<svg xmlns="http://www.w3.org/2000/svg" viewBox="0 0 1869.59 689.28"><defs><style>.cls-1{fill:#293238;}.cls-2{fill:#7124b3;}.cls-3{fill:#23b7b9;}</style></defs><g id="Layer_2" data-name="Layer 2"><g id="Layer_1-2" data-name="Layer 1"><path class="cls-1" d="M683.42,351.42a67.06,67.06,0,0,1-26.21-27.72q-9.35-17.91-9.34-41.41V224.45q0-23.49,9.49-41.41A67.6,67.6,0,0,1,684,155.32q17.16-9.78,39.76-9.79h31.93q21.38,0,38,9.19a63.68,63.68,0,0,1,25.6,25.91q9,16.71,9,38.7H793.67q0-19.28-10.55-31t-27.41-11.75H723.78q-18.37,0-29.52,13.56t-11.15,35.54v55.42q0,22.29,10.85,35.69t28.62,13.41h32.53q17.46,0,28.31-13.25t10.85-34.34h34.64q0,23.49-9.19,41.27a66.69,66.69,0,0,1-25.91,27.56q-16.71,9.79-38.7,9.78H722.58Q700.28,361.2,683.42,351.42Z"/><path class="cls-1" d="M862,345.09Q845.17,329,845.17,302.47V265.12q0-17.48,7.68-30.88a52.81,52.81,0,0,1,21.69-20.78q14-7.38,32.38-7.38h26.51q18.36,0,32.38,7.38a52.84,52.84,0,0,1,21.68,20.78q7.68,13.41,7.69,30.88v37.35q0,26.5-17,42.62T932.83,361.2H906.62Q878.9,361.2,862,345.09Zm70.49-13.71q12.65,0,20.33-8.58t7.68-22.44V266.92q0-13.85-7.53-22.44t-20.18-8.58H907.52q-12.64,0-20.18,8.58t-7.53,22.44v33.44q0,13.86,7.53,22.44t19.58,8.58Z"/><path class="cls-1" d="M1009.63,208.49h32.23v19.58a49.57,49.57,0,0,1,17.47-16,44.41,44.41,0,0,1,21.69-6h18.67q23.2,0,37.21,14.76t14,38.85V358.8h-34.65V260.6q0-10.85-5.57-17.62a18,18,0,0,0-14.61-6.78h-18.67q-11.76,0-21.09,8.89t-12,22.74v91h-34.64Z"/><path class="cls-1" d="M1202.11,340.73,1150.3,208.49h36.45l39.15,111.15h.3l39.47-111.15h36.44L1242.17,358.8H1224.7Q1209,358.8,1202.11,340.73Z"/><path class="cls-1" d="M1330.28,354.28a51.37,51.37,0,0,1-21.69-19.58q-7.68-12.66-7.68-29.22V265.12q0-17.48,7.68-30.88a52.81,52.81,0,0,1,21.69-20.78q14-7.38,32.38-7.38h24.1q27.4,0,44,16t16.57,42.47v30.13H1335.54v10.84q0,12.06,7.39,19.28t19.73,7.23h23.19q12,0,19.43-5.87a18.87,18.87,0,0,0,7.38-15.52h34q0,22.9-16.87,36.75t-44.28,13.85h-22.89Q1344.27,361.2,1330.28,354.28Zm83-85.55v-4.22q0-13.24-7.23-21.38t-19-8.14h-24.4q-12.36,0-20,8.59T1334.94,266v2.71Z"/><path class="cls-1" d="M1466.27,208.49h32.23V229a44.42,44.42,0,0,1,17.32-15.21,49.94,49.94,0,0,1,23.35-5.87h18.07V238h-18.07q-17.18,0-27.72,10.54T1500.91,276V358.8h-34.64Z"/><path class="cls-1" d="M1581,347.35q-15.68-13.86-15.67-36.75h34q0,9.64,6.33,15.52T1622.6,332h26.81q10.23,0,16.11-3.47t5.88-9.49v-6.62a9.3,9.3,0,0,0-3.46-7.23,20.29,20.29,0,0,0-9.49-4.22l-52.11-9q-17.47-3-27.72-12.81t-10.24-22.74v-9.94q0-18.67,14.91-29.52t41.12-10.84h24.1q23.79,0,38.55,12.95t14.77,34h-34q0-8.15-5.26-12.95t-14-4.83h-23.8q-10.55,0-16.27,3.32t-5.72,9.34v6a9.25,9.25,0,0,0,3.47,7.23,17.91,17.91,0,0,0,9.18,3.92l53.92,9.64q16.56,3.32,26.51,12.65t9.94,22v11.14q0,18.69-15.36,29.67t-41,11H1622.6Q1596.7,361.2,1581,347.35Z"/><path class="cls-1" d="M1752.57,354.28a51.43,51.43,0,0,1-21.69-19.58q-7.67-12.66-7.67-29.22V265.12q0-17.48,7.67-30.88a52.87,52.87,0,0,1,21.69-20.78q14-7.38,32.38-7.38h24.1q27.4,0,44,16t16.56,42.47v30.13H1757.84v10.84q0,12.06,7.38,19.28T1785,332h23.2q12,0,19.43-5.87A18.88,18.88,0,0,0,1835,310.6h34q0,22.9-16.87,36.75t-44.27,13.85H1785Q1766.58,361.2,1752.57,354.28Zm83-85.55v-4.22q0-13.24-7.23-21.38t-19-8.14H1785q-12.35,0-20,8.59T1757.24,266v2.71Z"/><path class="cls-1" d="M649.79,419h31.63L788.05,573.23V419h34.34V629.86H790.46L684.13,476.24V629.86H649.79Z"/><path class="cls-1" d="M860.94,616.15Q844.08,600,844.08,573.53V536.18q0-17.46,7.67-30.88a52.93,52.93,0,0,1,21.69-20.78q14-7.38,32.38-7.38h26.51q18.38,0,32.38,7.38A52.87,52.87,0,0,1,986.4,505.3q7.68,13.41,7.68,30.88v37.35q0,26.52-17,42.62t-45.33,16.12H905.52Q877.82,632.27,860.94,616.15Zm70.49-13.7q12.65,0,20.33-8.59t7.68-22.44V538q0-13.85-7.53-22.43T931.73,507H906.42q-12.64,0-20.17,8.59T878.71,538v33.44q0,13.86,7.54,22.44t19.57,8.59Z"/><path class="cls-1" d="M1214.58,479.55l-30.73,128.92q-5.13,21.39-23.19,21.39h-16l-34.64-101.21-36.14,101.21h-15.66q-17.79,0-23.2-21.39l-31.33-128.92h35.85l22,106.93,35.55-103h13.25a16.34,16.34,0,0,1,9.79,2.72c2.51,1.8,4.47,4.72,5.88,8.73l31.32,90.67,21.39-106Z"/><path class="cls-2" d="M226.72,285.05a38,38,0,0,0,38-38V22h0v0c0-12.16-59.25-22-132.34-22S0,9.86,0,22c0,.05,0,.1,0,.14V244Q0,406.69,78.44,477.37q54.91,49.5,142.84,65.93c22.58,4.23,43.39-13.37,43.39-36.34V463.32c0-15.15-8.68-29.2-22.56-35.25q-88.17-38.42-78.74-143Z"/><path class="cls-3" d="M573.5,167.69a2.51,2.51,0,0,0,0-.27c0-12.17-59.25-22-132.33-22s-132.32,9.89-132.32,22.05c0,.09,0,.18,0,.27s0,0,0,0v224.9a38,38,0,0,0,38,37.95h63.2a.15.15,0,0,1,.16.15q9.38,104.43-78.65,142.83c-13.94,6.08-22.66,20.18-22.66,35.39v42.28c0,23.63,21.41,41.78,44.62,37.37q87.08-16.56,141.62-65.7,78.43-70.7,78.41-233.42V167.74S573.51,167.71,573.5,167.69Z"/></g></g></svg>