<?xml version="1.0" encoding="utf-8"?>
<!-- Generator: Adobe Illustrator 24.1.1, SVG Export Plug-In . SVG Version: 6.00 Build 0)  -->
<svg version="1.1" id="Layer_1" xmlns="http://www.w3.org/2000/svg" xmlns:xlink="http://www.w3.org/1999/xlink" x="0px" y="0px"
	 width="280px" height="60px" viewBox="0 0 280 60" style="enable-background:new 0 0 280 60;" xml:space="preserve">
<style type="text/css">
	.st0{fill:#666666;}
	.st1{fill:#FC7500;}
	.st2{fill:#8FD163;}
	.st3{fill:#4FC4F7;}
</style>
<g id="Layer_2_1_">
</g>
<g id="Layer_1_1_">
</g>
<g id="Layer_3_1_">
	<g>
		<g>
			<path class="st0" d="M79.5,30.5c0-1.9-0.5-3.4-1.6-4.5c-1-1.1-2.5-1.6-4.4-1.6c-2.3,0-4.3,0.8-6,2.3v20.1c0,0.5-0.2,0.9-0.5,1.3
				c-0.3,0.3-0.8,0.5-1.3,0.5s-0.9-0.2-1.3-0.5c-0.3-0.3-0.5-0.8-0.5-1.3V12.3c0-0.5,0.2-0.9,0.5-1.3c0.3-0.3,0.8-0.5,1.3-0.5
				s0.9,0.2,1.3,0.5c0.3,0.3,0.5,0.8,0.5,1.3v10.4c0.9-0.5,1.9-0.9,2.9-1.1c1-0.3,2.1-0.4,3.1-0.4c1.4,0,2.7,0.2,3.9,0.7
				c1.2,0.5,2.2,1.1,3,2c0.8,0.8,1.5,1.8,1.9,3.1c0.5,1.2,0.7,2.5,0.7,4v16.2c0,0.5-0.2,0.9-0.5,1.3c-0.3,0.3-0.8,0.5-1.3,0.5
				s-0.9-0.2-1.3-0.5c-0.3-0.3-0.5-0.8-0.5-1.3V30.5H79.5z"/>
			<path class="st0" d="M91.4,22.9c0-0.5,0.2-0.9,0.5-1.3c0.3-0.3,0.8-0.5,1.3-0.5s0.9,0.2,1.3,0.5c0.3,0.3,0.5,0.8,0.5,1.3v24
				c0,0.5-0.2,0.9-0.5,1.3c-0.3,0.3-0.8,0.5-1.3,0.5s-0.9-0.2-1.3-0.5c-0.3-0.3-0.5-0.8-0.5-1.3V22.9z"/>
			<path class="st0" d="M118.8,46.9c-0.9,0.6-1.9,1.1-2.9,1.4c-1,0.3-2,0.4-3.1,0.4c-1.4,0-2.7-0.2-3.9-0.7c-1.2-0.5-2.2-1.1-3-2
				s-1.5-1.8-1.9-3.1c-0.5-1.2-0.7-2.5-0.7-4v-8.2c0-1.4,0.2-2.7,0.7-4s1.1-2.2,1.9-3.1c0.8-0.8,1.8-1.5,3-2s2.5-0.7,3.9-0.7
				s2.7,0.1,4,0.3s2.6,0.5,3.8,1c0.5,0.2,0.9,0.5,1.2,0.9c0.3,0.4,0.5,0.9,0.5,1.4v25.7c0,1.4-0.2,2.7-0.7,4
				c-0.5,1.2-1.1,2.2-1.9,3.1c-0.8,0.8-1.8,1.5-3,1.9c-1.2,0.5-2.5,0.7-3.9,0.7c-1.3,0-2.5-0.1-3.7-0.4c-1.2-0.3-2.4-0.7-3.5-1.1
				c-0.7-0.3-1-0.8-1-1.6c0-0.5,0.2-0.9,0.5-1.2s0.7-0.5,1.2-0.5c0.2,0,0.4,0.1,0.7,0.2c0.9,0.4,1.9,0.7,2.9,1s2,0.4,3,0.4
				c1.9,0,3.3-0.6,4.4-1.7c1-1.1,1.6-2.7,1.6-4.6L118.8,46.9L118.8,46.9z M118.8,25.3c-1.9-0.6-3.9-0.9-5.9-0.9
				c-1.9,0-3.3,0.5-4.4,1.6s-1.6,2.5-1.6,4.5v8.7c0,1.9,0.5,3.4,1.6,4.5s2.5,1.6,4.4,1.6c1.1,0,2.2-0.2,3.2-0.6s1.9-1,2.7-1.7
				C118.8,43,118.8,25.3,118.8,25.3z"/>
			<path class="st0" d="M145.6,30.5c0-1.9-0.5-3.4-1.6-4.5c-1-1.1-2.5-1.6-4.4-1.6c-2.3,0-4.3,0.8-6,2.3v20.1c0,0.5-0.2,0.9-0.5,1.3
				c-0.3,0.3-0.8,0.5-1.3,0.5s-0.9-0.2-1.3-0.5c-0.3-0.3-0.5-0.8-0.5-1.3V12.3c0-0.5,0.2-0.9,0.5-1.3c0.3-0.3,0.8-0.5,1.3-0.5
				s0.9,0.2,1.3,0.5c0.3,0.3,0.5,0.8,0.5,1.3v10.4c0.9-0.5,1.9-0.9,2.9-1.1c1-0.3,2.1-0.4,3.1-0.4c1.4,0,2.7,0.2,3.9,0.7
				s2.2,1.1,3,2c0.8,0.8,1.5,1.8,1.9,3.1c0.5,1.2,0.7,2.5,0.7,4v16.2c0,0.5-0.2,0.9-0.5,1.3c-0.3,0.4-0.8,0.5-1.3,0.5
				s-0.9-0.2-1.3-0.5c-0.3-0.3-0.5-0.8-0.5-1.3V30.5H145.6z"/>
			<path class="st0" d="M156.9,28.4c0-1.1,0.2-2.1,0.5-2.9s0.9-1.6,1.5-2.3c0.6-0.7,1.3-1.1,2.2-1.5c0.8-0.3,1.7-0.5,2.7-0.5
				c1.2,0,2.4,0.1,3.8,0.4c0.4,0.1,0.8,0.3,1,0.6c0.3,0.3,0.4,0.7,0.4,1.1c0,0.5-0.2,0.9-0.5,1.2c-0.3,0.3-0.8,0.5-1.3,0.5
				c-0.1,0-0.3,0-0.4-0.1c-0.1,0-0.3-0.1-0.5-0.1c-0.4-0.1-0.8-0.1-1.2-0.2s-0.8-0.1-1.3-0.1c-0.9,0-1.7,0.3-2.3,1
				c-0.6,0.6-1,1.5-1,2.7v18.7c0,0.5-0.2,0.9-0.5,1.3c-0.3,0.3-0.8,0.5-1.3,0.5s-0.9-0.2-1.3-0.5s-0.5-0.8-0.5-1.3L156.9,28.4
				L156.9,28.4z"/>
			<path class="st0" d="M190.8,45.1c0,0.5-0.2,1-0.5,1.4s-0.7,0.7-1.2,0.9c-1.3,0.4-2.5,0.7-3.8,1c-1.3,0.2-2.6,0.3-4,0.3
				c-3.2,0-5.6-0.7-7.2-2.2c-1.5-1.4-2.3-3.4-2.3-5.9c0-2.4,0.8-4.5,2.3-5.9c0.8-0.7,1.8-1.3,3-1.6s2.6-0.5,4.2-0.5h5.9v-3.4
				c0-1.6-0.5-2.7-1.5-3.6s-2.3-1.2-4-1.2c-1,0-2.1,0.1-3,0.4c-1,0.3-2,0.7-3,1.3c-0.3,0.2-0.6,0.3-0.8,0.3c-0.5,0-0.9-0.1-1.3-0.4
				c-0.3-0.3-0.5-0.7-0.5-1.2c0-0.7,0.3-1.2,0.9-1.6c1.2-0.8,2.5-1.3,3.8-1.6s2.6-0.5,3.9-0.5c1.2,0,2.4,0.2,3.5,0.5
				s2.1,0.8,2.9,1.5c0.8,0.7,1.5,1.5,2,2.5s0.7,2.1,0.7,3.6L190.8,45.1L190.8,45.1z M187.3,35.9h-5.9c-1.3,0-2.4,0.1-3.2,0.4
				c-0.8,0.3-1.4,0.6-1.8,1.1c-0.4,0.5-0.7,0.9-0.8,1.5c-0.1,0.5-0.2,1.1-0.2,1.6s0.1,1.1,0.2,1.6c0.1,0.6,0.4,1.1,0.8,1.5
				c0.4,0.4,1,0.9,1.8,1.1c0.8,0.3,1.9,0.4,3.2,0.4c2,0,4-0.3,5.9-0.9V35.9z"/>
			<path class="st0" d="M208.1,48.7c-1.4,0-2.7-0.2-3.9-0.7s-2.2-1.1-3-2c-0.8-0.8-1.5-1.8-1.9-3.1c-0.5-1.2-0.7-2.5-0.7-4v-8.2
				c0-2.9,0.9-5.3,2.6-7.1c1.7-1.7,4-2.6,6.9-2.6c1.1,0,2.1,0.1,3.1,0.4s2,0.7,2.9,1.1V12.3c0-0.5,0.2-0.9,0.5-1.3
				c0.3-0.3,0.8-0.5,1.3-0.5s0.9,0.2,1.3,0.5c0.3,0.3,0.5,0.8,0.5,1.3V45c0,0.5-0.2,1-0.5,1.4s-0.7,0.7-1.2,0.9
				c-1.3,0.4-2.5,0.7-3.8,1C210.8,48.6,209.5,48.7,208.1,48.7z M202.1,39.3c0,1.9,0.5,3.4,1.6,4.5c1,1.1,2.5,1.6,4.4,1.6
				c2.1,0,4-0.3,6-0.9v-18c-0.8-0.8-1.7-1.3-2.8-1.6c-1-0.3-2.1-0.5-3.2-0.5c-1.9,0-3.3,0.5-4.4,1.6c-1,1.1-1.6,2.5-1.6,4.5V39.3z"
				/>
			<path class="st0" d="M226,22.9c0-0.5,0.2-0.9,0.5-1.3c0.3-0.3,0.8-0.5,1.3-0.5s0.9,0.2,1.3,0.5c0.3,0.3,0.5,0.8,0.5,1.3v24
				c0,0.5-0.2,0.9-0.5,1.3c-0.3,0.3-0.8,0.5-1.3,0.5s-0.9-0.2-1.3-0.5c-0.3-0.3-0.5-0.8-0.5-1.3V22.9z M93.2,17.2
				c-0.8,0-1.4-0.3-1.9-0.8s-0.8-1.2-0.8-1.9c0-0.8,0.3-1.4,0.8-1.9s1.2-0.8,1.9-0.8c0.8,0,1.4,0.3,1.9,0.8s0.8,1.2,0.8,1.9
				c0,0.8-0.3,1.4-0.8,1.9C94.6,16.9,93.9,17.2,93.2,17.2z"/>
			<path class="st0" d="M253.4,22.9c0-0.5,0.2-0.9,0.5-1.3c0.3-0.3,0.8-0.5,1.3-0.5s0.9,0.2,1.3,0.5c0.3,0.3,0.5,0.8,0.5,1.3v22.2
				c0,0.5-0.1,1-0.4,1.4s-0.7,0.7-1.2,0.9c-1.3,0.4-2.5,0.7-3.9,1c-1.3,0.2-2.7,0.3-4,0.3c-3,0-5.3-0.9-7-2.6
				c-1.7-1.7-2.6-4.1-2.6-7.1V22.9c0-0.5,0.2-0.9,0.5-1.3c0.3-0.3,0.8-0.5,1.3-0.5s0.9,0.2,1.3,0.5c0.3,0.3,0.5,0.8,0.5,1.3v16.4
				c0,1.9,0.5,3.4,1.6,4.5s2.5,1.6,4.4,1.6c2,0,4-0.3,5.9-0.9L253.4,22.9L253.4,22.9z"/>
			<path class="st0" d="M268.1,35c-1.2-0.5-2.3-1.3-3.2-2.3c-0.9-1-1.4-2.5-1.4-4.4c0-1.1,0.2-2.1,0.7-2.9c0.5-0.9,1.1-1.6,1.8-2.2
				c0.8-0.6,1.7-1.1,2.7-1.4s2.1-0.5,3.3-0.5c1.3,0,2.4,0.1,3.5,0.4c1,0.2,2,0.6,2.9,0.9c0.7,0.3,1.1,0.9,1.1,1.7
				c0,0.5-0.2,0.9-0.5,1.2c-0.3,0.3-0.8,0.4-1.3,0.4c-0.2,0-0.4-0.1-0.7-0.2c-1.6-0.8-3.4-1.1-5.4-1.1c-0.5,0-1,0.1-1.6,0.2
				c-0.5,0.1-1,0.3-1.4,0.6s-0.8,0.7-1.1,1.1c-0.3,0.5-0.4,1-0.4,1.7c0,1,0.3,1.8,0.9,2.4s1.2,1,1.7,1.2l4.9,2
				c1.6,0.6,2.8,1.5,3.8,2.7s1.4,2.6,1.4,4.3c0,1.1-0.2,2.1-0.6,3.1s-1,1.8-1.7,2.5s-1.6,1.2-2.7,1.6c-1,0.4-2.1,0.6-3.3,0.6
				c-1.4,0-2.6-0.1-3.7-0.4c-1.1-0.3-2.2-0.6-3.2-1.1c-0.7-0.3-1-0.9-1-1.6c0-0.5,0.2-0.9,0.5-1.2s0.8-0.5,1.3-0.5
				c0.1,0,0.3,0,0.4,0.1c0.1,0,0.2,0.1,0.4,0.2c0.8,0.4,1.7,0.7,2.6,0.9s1.9,0.4,2.9,0.4c1.2,0,2.3-0.3,3.2-1
				c0.9-0.7,1.4-1.6,1.4-2.8c0-1.1-0.3-2-0.8-2.6s-1.4-1.2-2.5-1.7L268.1,35z"/>
		</g>
		<path class="st1" d="M227.5,17.2c-0.8,0-1.4-0.3-1.9-0.8s-0.8-1.2-0.8-1.9c0-0.8,0.3-1.4,0.8-1.9s1.2-0.8,1.9-0.8
			c0.8,0,1.4,0.3,1.9,0.8s0.8,1.2,0.8,1.9c0,0.8-0.3,1.4-0.8,1.9S228.3,17.2,227.5,17.2z"/>
		<g>
			<g>
				<path id="Path_302_1_" class="st2" d="M41.9,53.1c-6-0.2-11.7-2.3-16.4-6.2C34.3,45,41.9,39.2,46.1,31c1.5,3.5,2.2,7.2,2.2,11.1
					c0,1.9-0.2,3.9-0.6,5.8l-0.6,2.8c-1,0.9-2,1.7-3.1,2.4H41.9z"/>
				<path id="Path_303_1_" class="st3" d="M27.6,58c-2.3,0-4.6-0.3-6.8-0.9C9.8,54.3,1.6,45.1,0,33.7c0.2-0.4,0.4-0.9,0.7-1.8
					c0.1-0.5,0.3-1,0.6-1.5c2.4-6.2,7.3-11.2,13.4-13.6c-1.6,3.6-2.4,7.3-2.4,11.2c0,14.2,10.5,25.8,24.8,28.5
					C34.1,57.5,30.8,58,27.6,58z"/>
			</g>
			<path class="st1" d="M0.7,22.8c4.1-6,10.4-10.2,17.5-11.6c1.8-0.4,3.5-0.6,5.3-0.6c9.9,0.1,19.1,5.5,24.1,14.2
				c2.9,5.1,4.5,10.8,4.4,16.7v2.2c2.8-4.6,4.3-9.8,4.4-15.2C56.3,12.8,43.7,0.1,28.2,0C18.4,0,9.7,5.1,4.6,12.8
				C4.5,12.8,1.1,18.2,0.7,22.8z"/>
		</g>
	</g>
</g>
</svg>
